<svg width="36" height="36" viewBox="0 0 36 36" fill="none" xmlns="http://www.w3.org/2000/svg">
<path d="M0 18C0 8.05888 8.05888 0 18 0C27.9411 0 36 8.05888 36 18C36 27.9411 27.9411 36 18 36C8.05888 36 0 27.9411 0 18Z" fill="#E6E8ED"/>
<path d="M18.0006 8C13.0631 8 12.0006 12.0625 13.0006 14.25C13.0006 17.6875 14.1881 21.125 18.0006 21.125C21.6881 21.125 23.0006 17.6875 23.0006 14.25C24.1881 10.5625 21.6881 9.25 20.5006 9.25C20.4381 8.0625 19.0631 8 18.0006 8ZM12.5706 20.5C10.0081 20.75 8 22.875 8 25.5V27.6875C8 27.875 8.125 28 8.3125 28H27.6875C27.875 28 28 27.875 28 27.6875V25.5C28 22.875 25.9925 20.75 23.4294 20.5C23.2419 20.5 23.0662 20.6287 22.9412 20.7537C21.7537 22.1912 20.0625 23 18 23C15.9375 23 14.2463 22.1912 13.0588 20.7537C12.9338 20.6287 12.7581 20.5 12.5706 20.5Z" fill="#B5BAC9"/>
</svg>
